<svg width="100" height="101" viewBox="0 0 100 101" fill="none" xmlns="http://www.w3.org/2000/svg">
<rect width="100" height="101" fill="white"/>
<path d="M11.0508 46.2129L7.18359 58H4.06836L9.35156 43.7812H11.334L11.0508 46.2129ZM14.2637 58L10.3867 46.2129L10.0742 43.7812H12.0762L17.3887 58H14.2637ZM14.0879 52.707V55.002H6.57812V52.707H14.0879ZM26.3828 43.7812H29.3027V53.1758C29.3027 54.2695 29.0684 55.1908 28.5996 55.9395C28.1374 56.6882 27.4961 57.2513 26.6758 57.6289C25.862 58.0065 24.9245 58.1953 23.8633 58.1953C22.8021 58.1953 21.8581 58.0065 21.0312 57.6289C20.2109 57.2513 19.5664 56.6882 19.0977 55.9395C18.6354 55.1908 18.4043 54.2695 18.4043 53.1758V43.7812H21.334V53.1758C21.334 53.8138 21.4349 54.3346 21.6367 54.7383C21.8385 55.1419 22.1283 55.4382 22.5059 55.627C22.89 55.8158 23.3424 55.9102 23.8633 55.9102C24.3971 55.9102 24.8496 55.8158 25.2207 55.627C25.5983 55.4382 25.8848 55.1419 26.0801 54.7383C26.2819 54.3346 26.3828 53.8138 26.3828 53.1758V43.7812ZM31.7148 43.7812H37.0176C38.1048 43.7812 39.0391 43.944 39.8203 44.2695C40.6081 44.5951 41.2135 45.0768 41.6367 45.7148C42.0599 46.3529 42.2715 47.1374 42.2715 48.0684C42.2715 48.8301 42.1413 49.4844 41.8809 50.0312C41.627 50.5716 41.2656 51.0241 40.7969 51.3887C40.3346 51.7467 39.791 52.0332 39.166 52.248L38.2383 52.7363H33.6289L33.6094 50.4512H37.0371C37.5514 50.4512 37.9779 50.36 38.3164 50.1777C38.6549 49.9954 38.9089 49.7415 39.0781 49.416C39.2539 49.0905 39.3418 48.7129 39.3418 48.2832C39.3418 47.8275 39.2572 47.4336 39.0879 47.1016C38.9186 46.7695 38.6615 46.5156 38.3164 46.3398C37.9714 46.1641 37.5384 46.0762 37.0176 46.0762H34.6445V58H31.7148V43.7812ZM39.6641 58L36.4219 51.6621L39.5176 51.6426L42.7988 57.8633V58H39.6641Z" fill="#FECD00"/>
<path d="M50.3086 46.2129L46.4414 58H43.3262L48.6094 43.7812H50.5918L50.3086 46.2129ZM53.5215 58L49.6445 46.2129L49.332 43.7812H51.334L56.6465 58H53.5215ZM53.3457 52.707V55.002H45.8359V52.707H53.3457ZM65.6406 43.7812H68.5605V53.1758C68.5605 54.2695 68.3262 55.1908 67.8574 55.9395C67.3952 56.6882 66.7539 57.2513 65.9336 57.6289C65.1198 58.0065 64.1823 58.1953 63.1211 58.1953C62.0599 58.1953 61.1159 58.0065 60.2891 57.6289C59.4688 57.2513 58.8242 56.6882 58.3555 55.9395C57.8932 55.1908 57.6621 54.2695 57.6621 53.1758V43.7812H60.5918V53.1758C60.5918 53.8138 60.6927 54.3346 60.8945 54.7383C61.0964 55.1419 61.3861 55.4382 61.7637 55.627C62.1478 55.8158 62.6003 55.9102 63.1211 55.9102C63.6549 55.9102 64.1074 55.8158 64.4785 55.627C64.8561 55.4382 65.1426 55.1419 65.3379 54.7383C65.5397 54.3346 65.6406 53.8138 65.6406 53.1758V43.7812ZM77.3301 43.7812V58H74.4102V43.7812H77.3301ZM81.7051 43.7812V46.0762H70.1035V43.7812H81.7051ZM94.7812 50.5586V51.2324C94.7812 52.3132 94.6348 53.2832 94.3418 54.1426C94.0488 55.002 93.6354 55.7344 93.1016 56.3398C92.5677 56.9388 91.9297 57.3978 91.1875 57.7168C90.4518 58.0358 89.6348 58.1953 88.7363 58.1953C87.8444 58.1953 87.0273 58.0358 86.2852 57.7168C85.5495 57.3978 84.9115 56.9388 84.3711 56.3398C83.8307 55.7344 83.4108 55.002 83.1113 54.1426C82.8184 53.2832 82.6719 52.3132 82.6719 51.2324V50.5586C82.6719 49.4714 82.8184 48.5013 83.1113 47.6484C83.4043 46.7891 83.8177 46.0566 84.3516 45.4512C84.8919 44.8457 85.5299 44.3835 86.2656 44.0645C87.0078 43.7454 87.8249 43.5859 88.7168 43.5859C89.6152 43.5859 90.4323 43.7454 91.168 44.0645C91.9102 44.3835 92.5482 44.8457 93.082 45.4512C93.6224 46.0566 94.0391 46.7891 94.332 47.6484C94.6315 48.5013 94.7812 49.4714 94.7812 50.5586ZM91.8223 51.2324V50.5391C91.8223 49.7839 91.7539 49.1198 91.6172 48.5469C91.4805 47.974 91.2786 47.4922 91.0117 47.1016C90.7448 46.7109 90.4193 46.418 90.0352 46.2227C89.651 46.0208 89.2116 45.9199 88.7168 45.9199C88.222 45.9199 87.7826 46.0208 87.3984 46.2227C87.0208 46.418 86.6986 46.7109 86.4316 47.1016C86.1712 47.4922 85.9727 47.974 85.8359 48.5469C85.6992 49.1198 85.6309 49.7839 85.6309 50.5391V51.2324C85.6309 51.9811 85.6992 52.6452 85.8359 53.2246C85.9727 53.7975 86.1745 54.2826 86.4414 54.6797C86.7083 55.0703 87.0339 55.3665 87.418 55.5684C87.8021 55.7702 88.2415 55.8711 88.7363 55.8711C89.2311 55.8711 89.6706 55.7702 90.0547 55.5684C90.4388 55.3665 90.7611 55.0703 91.0215 54.6797C91.2819 54.2826 91.4805 53.7975 91.6172 53.2246C91.7539 52.6452 91.8223 51.9811 91.8223 51.2324Z" fill="black"/>
</svg>
